<?xml version="1.0" encoding="utf-8"?>
<!-- Generator: Adobe Illustrator 25.2.0, SVG Export Plug-In . SVG Version: 6.00 Build 0)  -->
<svg version="1.1" id="レイヤー_1" xmlns="http://www.w3.org/2000/svg" xmlns:xlink="http://www.w3.org/1999/xlink" x="0px"
	 y="0px" viewBox="0 0 200 52.4" style="enable-background:new 0 0 200 52.4;" xml:space="preserve">
<style type="text/css">
	.st0{fill:#FFFFFF;}
</style>
<g>
	<path class="st0" d="M25.3,2.4v1h-8V49h7.9c12.5,0,15.6-5.2,16.7-15.1h1l-0.8,16H1.3v-1h7V3.4h-7v-1H25.3z"/>
	<path class="st0" d="M70.9,1.4c11.8,0,22.5,10.7,22.5,24.8S82.7,51,70.9,51S48.4,40.4,48.4,26.2S59.1,1.4,70.9,1.4z M71,50
		c11.7,0,12.2-12.3,12.2-23.8c0-12.4-0.7-23.8-12.4-23.8C59,2.4,58.7,15,58.7,26.2C58.7,38.3,59.2,50,71,50z"/>
	<path class="st0" d="M141.9,2.4v13.4h-1c-2-8.3-7.9-13.5-15.1-13.5c-5.4,0-9.6,2.8-11.2,5.9c-3,5.4-3.3,15.2-3.3,20
		c0,4.2,0,21.8,12.5,21.8c5.8,0,10.7-1.6,10.7-13.1v-7.2h-7.9v-1H149v1h-4.4v1.9c0,3.4-0.1,8.7-3.2,12.6c-3.2,4-9.4,6.7-17,6.7
		c-17.5,0-23.3-14.7-23.3-24.8c0-10.5,5.9-24.8,24-24.8c6.1,0,9.8,1.5,13.6,5.2l2.5-4.1C141.2,2.4,141.9,2.4,141.9,2.4z"/>
	<path class="st0" d="M176.2,1.4c11.8,0,22.5,10.7,22.5,24.8c0,14.2-10.7,24.8-22.5,24.8s-22.5-10.6-22.5-24.8S164.5,1.4,176.2,1.4z
		 M176.4,50c11.7,0,12.2-12.3,12.2-23.8c0-12.4-0.7-23.8-12.4-23.8c-11.8,0-12.1,12.6-12.1,23.8C164,38.3,164.5,50,176.4,50z"/>
</g>
</svg>
