<?xml version="1.0" encoding="utf-8"?>
<!-- Generator: Adobe Illustrator 24.0.3, SVG Export Plug-In . SVG Version: 6.00 Build 0)  -->
<svg version="1.1" id="レイヤー_1" xmlns="http://www.w3.org/2000/svg" xmlns:xlink="http://www.w3.org/1999/xlink" x="0px"
	 y="0px" viewBox="0 0 175.9 200" style="enable-background:new 0 0 175.9 200;" xml:space="preserve">
<style type="text/css">
	.st0{fill:#2B2B2B;}
</style>
<path class="st0" d="M172.2,84.9l-33-29.9v20.5H86c-2.3,0-4.1,1.8-4.1,4.1v12.1c0,2.3,1.8,4.1,4.1,4.1h53.2v19.1L172.2,84.9z"/>
<path class="st0" d="M114.6,70.2c2.4,0,4.3-1.9,4.3-4.3V9.1c0-4.5-3.7-8.2-8.2-8.2H8.9c-0.2,0-0.3,0-0.4,0c-1.4-0.1-2.7,0.2-4,0.8
	C2.2,3.2,0.8,5.6,0.8,8.2v1v146.1v6.7c0,2.6,1.2,5.2,3.5,6.4l50,29.5c1.2,0.6,2.6,0.9,3.8,0.9s2.3-0.3,3.5-0.9
	c2.3-1.4,3.8-3.8,3.8-6.4v-28H111c4.5,0,8.2-3.7,8.2-8.2v-48.5c0-2.4-1.9-4.3-4.3-4.3s-4.3,1.9-4.3,4.3v48H65.2V37.6
	c0-2.6-1.2-5.2-3.5-6.4L25,9.6h85.3v56.2C110.3,68.2,112.3,70.2,114.6,70.2z"/>
</svg>
